<?xml version="1.0" encoding="utf-8"?>
<!-- Generator: Adobe Illustrator 25.0.1, SVG Export Plug-In . SVG Version: 6.00 Build 0)  -->
<svg version="1.1" id="Design_here" xmlns="http://www.w3.org/2000/svg" xmlns:xlink="http://www.w3.org/1999/xlink" x="0px"
	 y="0px" viewBox="0 0 32 32" style="enable-background:new 0 0 32 32;" xml:space="preserve">
<style type="text/css">
	.st0{fill:#4E4E50;}
</style>
<g>
	<path class="st0" d="M29.5,7.5h-27C2.22,7.5,2,7.28,2,7s0.22-0.5,0.5-0.5h27C29.78,6.5,30,6.72,30,7S29.78,7.5,29.5,7.5z"/>
	<path class="st0" d="M29.5,16.5h-27C2.22,16.5,2,16.28,2,16s0.22-0.5,0.5-0.5h27c0.28,0,0.5,0.22,0.5,0.5S29.78,16.5,29.5,16.5z"/>
	<path class="st0" d="M29.5,25.5h-27C2.22,25.5,2,25.28,2,25s0.22-0.5,0.5-0.5h27c0.28,0,0.5,0.22,0.5,0.5S29.78,25.5,29.5,25.5z"/>
</g>
</svg>
